<svg xmlns="http://www.w3.org/2000/svg" width="960" height="608" viewBox="0 0 960 608">
    <g fill="#F3F3F3" fill-rule="evenodd">
        <path d="M304 176v16c-61.856 0-112 50.144-112 112s50.144 112 112 112 112-50.144 112-112h16c0 70.692-57.308 128-128 128-70.692 0-128-57.308-128-128 0-70.692 57.308-128 128-128zm0 32v16c-44.183 0-80 35.817-80 80s35.817 80 80 80 80-35.817 80-80h16c0 53.02-42.98 96-96 96s-96-42.98-96-96 42.98-96 96-96zm0 32v16c-26.51 0-48 21.49-48 48s21.49 48 48 48 48-21.49 48-48h16c0 35.346-28.654 64-64 64-35.346 0-64-28.654-64-64 0-35.346 28.654-64 64-64z"/>
        <path d="M480 432v-16 16zm112-128c0-61.856-50.144-112-112-112s-112 50.144-112 112h-16c0-70.692 57.308-128 128-128 70.692 0 128 57.308 128 128h-16zm-112 96v-16 16zm80-96c0-44.183-35.817-80-80-80s-80 35.817-80 80h-16c0-53.02 42.98-96 96-96s96 42.98 96 96h-16zm-80 64v-16 16zm48-64c0-26.51-21.49-48-48-48s-48 21.49-48 48h-16c0-35.346 28.654-64 64-64 35.346 0 64 28.654 64 64h-16z"/>
        <path d="M480 176v16-16zM368 304c0 61.856 50.144 112 112 112s112-50.144 112-112h16c0 70.692-57.308 128-128 128-70.692 0-128-57.308-128-128h16zm112-96v16-16zm-80 96c0 44.183 35.817 80 80 80s80-35.817 80-80h16c0 53.02-42.98 96-96 96s-96-42.98-96-96h16zm80-64v16-16zm-48 64c0 26.51 21.49 48 48 48s48-21.49 48-48h16c0 35.346-28.654 64-64 64-35.346 0-64-28.654-64-64h16z"/>
        <path d="M656 176v16c61.856 0 112 50.144 112 112s-50.144 112-112 112-112-50.144-112-112h-16c0 70.692 57.308 128 128 128 70.692 0 128-57.308 128-128 0-70.692-57.308-128-128-128zm0 32v16c44.183 0 80 35.817 80 80s-35.817 80-80 80-80-35.817-80-80h-16c0 53.02 42.98 96 96 96s96-42.98 96-96-42.98-96-96-96zm0 32v16c26.51 0 48 21.49 48 48s-21.49 48-48 48-48-21.49-48-48h-16c0 35.346 28.654 64 64 64 35.346 0 64-28.654 64-64 0-35.346-28.654-64-64-64z"/>
        <path d="M784 304h-16 16zM656 192c-61.856 0-112 50.144-112 112s50.144 112 112 112v16c-70.692 0-128-57.308-128-128 0-70.692 57.308-128 128-128v16zm96 112h-16 16zm-96-80c-44.183 0-80 35.817-80 80s35.817 80 80 80v16c-53.02 0-96-42.98-96-96s42.98-96 96-96v16zm64 80h-16 16zm-64-48c-26.51 0-48 21.49-48 48s21.49 48 48 48v16c-35.346 0-64-28.654-64-64 0-35.346 28.654-64 64-64v16zM176 304h16-16zm128 112c61.856 0 112-50.144 112-112s-50.144-112-112-112v-16c70.692 0 128 57.308 128 128 0 70.692-57.308 128-128 128v-16zm-96-112h16-16zm96 80c44.183 0 80-35.817 80-80s-35.817-80-80-80v-16c53.02 0 96 42.98 96 96s-42.98 96-96 96v-16zm-64-80h16-16zm64 48c26.51 0 48-21.49 48-48s-21.49-48-48-48v-16c35.346 0 64 28.654 64 64 0 35.346-28.654 64-64 64v-16z"/>
        <path d="M304 0v16c-61.856 0-112 50.144-112 112s50.144 112 112 112 112-50.144 112-112h16c0 70.692-57.308 128-128 128-70.692 0-128-57.308-128-128C176 57.308 233.308 0 304 0zm0 32v16c-44.183 0-80 35.817-80 80s35.817 80 80 80 80-35.817 80-80h16c0 53.02-42.98 96-96 96s-96-42.98-96-96 42.98-96 96-96zm0 32v16c-26.51 0-48 21.49-48 48s21.49 48 48 48 48-21.49 48-48h16c0 35.346-28.654 64-64 64-35.346 0-64-28.654-64-64 0-35.346 28.654-64 64-64z"/>
        <path d="M480 256v-16 16zm112-128c0-61.856-50.144-112-112-112S368 66.144 368 128h-16C352 57.308 409.308 0 480 0c70.692 0 128 57.308 128 128h-16zm-112 96v-16 16zm80-96c0-44.183-35.817-80-80-80s-80 35.817-80 80h-16c0-53.02 42.98-96 96-96s96 42.98 96 96h-16zm-80 64v-16 16zm48-64c0-26.51-21.49-48-48-48s-48 21.49-48 48h-16c0-35.346 28.654-64 64-64 35.346 0 64 28.654 64 64h-16z"/>
        <path d="M480 0v16V0zM368 128c0 61.856 50.144 112 112 112s112-50.144 112-112h16c0 70.692-57.308 128-128 128-70.692 0-128-57.308-128-128h16zm112-96v16-16zm-80 96c0 44.183 35.817 80 80 80s80-35.817 80-80h16c0 53.02-42.98 96-96 96s-96-42.98-96-96h16zm80-64v16-16zm-48 64c0 26.51 21.49 48 48 48s48-21.49 48-48h16c0 35.346-28.654 64-64 64-35.346 0-64-28.654-64-64h16z"/>
        <path d="M656 0v16c61.856 0 112 50.144 112 112s-50.144 112-112 112-112-50.144-112-112h-16c0 70.692 57.308 128 128 128 70.692 0 128-57.308 128-128C784 57.308 726.692 0 656 0zm0 32v16c44.183 0 80 35.817 80 80s-35.817 80-80 80-80-35.817-80-80h-16c0 53.02 42.98 96 96 96s96-42.98 96-96-42.98-96-96-96zm0 32v16c26.51 0 48 21.49 48 48s-21.49 48-48 48-48-21.49-48-48h-16c0 35.346 28.654 64 64 64 35.346 0 64-28.654 64-64 0-35.346-28.654-64-64-64z"/>
        <path d="M784 128h-16 16zM656 16c-61.856 0-112 50.144-112 112s50.144 112 112 112v16c-70.692 0-128-57.308-128-128C528 57.308 585.308 0 656 0v16zm96 112h-16 16zm-96-80c-44.183 0-80 35.817-80 80s35.817 80 80 80v16c-53.02 0-96-42.98-96-96s42.98-96 96-96v16zm64 80h-16 16zm-64-48c-26.51 0-48 21.49-48 48s21.49 48 48 48v16c-35.346 0-64-28.654-64-64 0-35.346 28.654-64 64-64v16zM960 128h-16 16zM832 16c-61.856 0-112 50.144-112 112s50.144 112 112 112v16c-70.692 0-128-57.308-128-128C704 57.308 761.308 0 832 0v16zm96 112h-16 16zm-96-80c-44.183 0-80 35.817-80 80s35.817 80 80 80v16c-53.02 0-96-42.98-96-96s42.98-96 96-96v16zm64 80h-16 16zm-64-48c-26.51 0-48 21.49-48 48s21.49 48 48 48v16c-35.346 0-64-28.654-64-64 0-35.346 28.654-64 64-64v16zM176 128h16-16zm128 112c61.856 0 112-50.144 112-112S365.856 16 304 16V0c70.692 0 128 57.308 128 128 0 70.692-57.308 128-128 128v-16zm-96-112h16-16zm96 80c44.183 0 80-35.817 80-80s-35.817-80-80-80V32c53.02 0 96 42.98 96 96s-42.98 96-96 96v-16zm-64-80h16-16zm64 48c26.51 0 48-21.49 48-48s-21.49-48-48-48V64c35.346 0 64 28.654 64 64 0 35.346-28.654 64-64 64v-16zM304 352v16c-61.856 0-112 50.144-112 112s50.144 112 112 112 112-50.144 112-112h16c0 70.692-57.308 128-128 128-70.692 0-128-57.308-128-128 0-70.692 57.308-128 128-128zm0 32v16c-44.183 0-80 35.817-80 80s35.817 80 80 80 80-35.817 80-80h16c0 53.02-42.98 96-96 96s-96-42.98-96-96 42.98-96 96-96zm0 32v16c-26.51 0-48 21.49-48 48s21.49 48 48 48 48-21.49 48-48h16c0 35.346-28.654 64-64 64-35.346 0-64-28.654-64-64 0-35.346 28.654-64 64-64z"/>
        <path d="M480 608v-16 16zm112-128c0-61.856-50.144-112-112-112s-112 50.144-112 112h-16c0-70.692 57.308-128 128-128 70.692 0 128 57.308 128 128h-16zm-112 96v-16 16zm80-96c0-44.183-35.817-80-80-80s-80 35.817-80 80h-16c0-53.02 42.98-96 96-96s96 42.98 96 96h-16zm-80 64v-16 16zm48-64c0-26.51-21.49-48-48-48s-48 21.49-48 48h-16c0-35.346 28.654-64 64-64 35.346 0 64 28.654 64 64h-16z"/>
        <path d="M480 352v16-16zM368 480c0 61.856 50.144 112 112 112s112-50.144 112-112h16c0 70.692-57.308 128-128 128-70.692 0-128-57.308-128-128h16zm112-96v16-16zm-80 96c0 44.183 35.817 80 80 80s80-35.817 80-80h16c0 53.02-42.98 96-96 96s-96-42.98-96-96h16zm80-64v16-16zm-48 64c0 26.51 21.49 48 48 48s48-21.49 48-48h16c0 35.346-28.654 64-64 64-35.346 0-64-28.654-64-64h16z"/>
        <path d="M656 352v16c61.856 0 112 50.144 112 112s-50.144 112-112 112-112-50.144-112-112h-16c0 70.692 57.308 128 128 128 70.692 0 128-57.308 128-128 0-70.692-57.308-128-128-128zm0 32v16c44.183 0 80 35.817 80 80s-35.817 80-80 80-80-35.817-80-80h-16c0 53.02 42.98 96 96 96s96-42.98 96-96-42.98-96-96-96zm0 32v16c26.51 0 48 21.49 48 48s-21.49 48-48 48-48-21.49-48-48h-16c0 35.346 28.654 64 64 64 35.346 0 64-28.654 64-64 0-35.346-28.654-64-64-64z"/>
        <path d="M832 176v16c61.856 0 112 50.144 112 112s-50.144 112-112 112-112-50.144-112-112h-16c0 70.692 57.308 128 128 128 70.692 0 128-57.308 128-128 0-70.692-57.308-128-128-128zm0 32v16c44.183 0 80 35.817 80 80s-35.817 80-80 80-80-35.817-80-80h-16c0 53.02 42.98 96 96 96s96-42.98 96-96-42.98-96-96-96zm0 32v16c26.51 0 48 21.49 48 48s-21.49 48-48 48-48-21.49-48-48h-16c0 35.346 28.654 64 64 64 35.346 0 64-28.654 64-64 0-35.346-28.654-64-64-64z"/>
        <path d="M960 304h-16c0 61.856-50.144 112-112 112s-112-50.144-112-112 50.144-112 112-112v-16c-70.692 0-128 57.308-128 128 0 70.692 57.308 128 128 128 70.692 0 128-57.308 128-128zm-32 0h-16c0 44.183-35.817 80-80 80s-80-35.817-80-80 35.817-80 80-80v-16c-53.02 0-96 42.98-96 96s42.98 96 96 96 96-42.98 96-96zm-32 0h-16c0 26.51-21.49 48-48 48s-48-21.49-48-48 21.49-48 48-48v-16c-35.346 0-64 28.654-64 64 0 35.346 28.654 64 64 64 35.346 0 64-28.654 64-64z"/>
        <path d="M832 352v16c61.856 0 112 50.144 112 112s-50.144 112-112 112-112-50.144-112-112h-16c0 70.692 57.308 128 128 128 70.692 0 128-57.308 128-128 0-70.692-57.308-128-128-128zm0 32v16c44.183 0 80 35.817 80 80s-35.817 80-80 80-80-35.817-80-80h-16c0 53.02 42.98 96 96 96s96-42.98 96-96-42.98-96-96-96zm0 32v16c26.51 0 48 21.49 48 48s-21.49 48-48 48-48-21.49-48-48h-16c0 35.346 28.654 64 64 64 35.346 0 64-28.654 64-64 0-35.346-28.654-64-64-64zM832 0v16c61.856 0 112 50.144 112 112s-50.144 112-112 112-112-50.144-112-112h-16c0 70.692 57.308 128 128 128 70.692 0 128-57.308 128-128C960 57.308 902.692 0 832 0zm0 32v16c44.183 0 80 35.817 80 80s-35.817 80-80 80-80-35.817-80-80h-16c0 53.02 42.98 96 96 96s96-42.98 96-96-42.98-96-96-96zm0 32v16c26.51 0 48 21.49 48 48s-21.49 48-48 48-48-21.49-48-48h-16c0 35.346 28.654 64 64 64 35.346 0 64-28.654 64-64 0-35.346-28.654-64-64-64z"/>
        <path d="M832 352v16c61.856 0 112 50.144 112 112s-50.144 112-112 112-112-50.144-112-112h-16c0 70.692 57.308 128 128 128 70.692 0 128-57.308 128-128 0-70.692-57.308-128-128-128zm0 32v16c44.183 0 80 35.817 80 80s-35.817 80-80 80-80-35.817-80-80h-16c0 53.02 42.98 96 96 96s96-42.98 96-96-42.98-96-96-96zm0 32v16c26.51 0 48 21.49 48 48s-21.49 48-48 48-48-21.49-48-48h-16c0 35.346 28.654 64 64 64 35.346 0 64-28.654 64-64 0-35.346-28.654-64-64-64z"/>
        <path d="M960 480h-16c0 61.856-50.144 112-112 112s-112-50.144-112-112 50.144-112 112-112v-16c-70.692 0-128 57.308-128 128 0 70.692 57.308 128 128 128 70.692 0 128-57.308 128-128zm-32 0h-16c0 44.183-35.817 80-80 80s-80-35.817-80-80 35.817-80 80-80v-16c-53.02 0-96 42.98-96 96s42.98 96 96 96 96-42.98 96-96zm-32 0h-16c0 26.51-21.49 48-48 48s-48-21.49-48-48 21.49-48 48-48v-16c-35.346 0-64 28.654-64 64 0 35.346 28.654 64 64 64 35.346 0 64-28.654 64-64z"/>
        <path d="M960 480h-16c0 61.856-50.144 112-112 112s-112-50.144-112-112 50.144-112 112-112v-16c-70.692 0-128 57.308-128 128 0 70.692 57.308 128 128 128 70.692 0 128-57.308 128-128zm-32 0h-16c0 44.183-35.817 80-80 80s-80-35.817-80-80 35.817-80 80-80v-16c-53.02 0-96 42.98-96 96s42.98 96 96 96 96-42.98 96-96zm-32 0h-16c0 26.51-21.49 48-48 48s-48-21.49-48-48 21.49-48 48-48v-16c-35.346 0-64 28.654-64 64 0 35.346 28.654 64 64 64 35.346 0 64-28.654 64-64zM784 480h-16 16zM656 368c-61.856 0-112 50.144-112 112s50.144 112 112 112v16c-70.692 0-128-57.308-128-128 0-70.692 57.308-128 128-128v16zm96 112h-16 16zm-96-80c-44.183 0-80 35.817-80 80s35.817 80 80 80v16c-53.02 0-96-42.98-96-96s42.98-96 96-96v16zm64 80h-16 16zm-64-48c-26.51 0-48 21.49-48 48s21.49 48 48 48v16c-35.346 0-64-28.654-64-64 0-35.346 28.654-64 64-64v16zM176 480h16-16zm128 112c61.856 0 112-50.144 112-112s-50.144-112-112-112v-16c70.692 0 128 57.308 128 128 0 70.692-57.308 128-128 128v-16zm-96-112h16-16zm96 80c44.183 0 80-35.817 80-80s-35.817-80-80-80v-16c53.02 0 96 42.98 96 96s-42.98 96-96 96v-16zm-64-80h16-16zm64 48c26.51 0 48-21.49 48-48s-21.49-48-48-48v-16c35.346 0 64 28.654 64 64 0 35.346-28.654 64-64 64v-16zM128 176v16c-61.856 0-112 50.144-112 112s50.144 112 112 112 112-50.144 112-112h16c0 70.692-57.308 128-128 128C57.308 432 0 374.692 0 304c0-70.692 57.308-128 128-128zm0 32v16c-44.183 0-80 35.817-80 80s35.817 80 80 80 80-35.817 80-80h16c0 53.02-42.98 96-96 96s-96-42.98-96-96 42.98-96 96-96zm0 32v16c-26.51 0-48 21.49-48 48s21.49 48 48 48 48-21.49 48-48h16c0 35.346-28.654 64-64 64-35.346 0-64-28.654-64-64 0-35.346 28.654-64 64-64z"/>
        <path d="M0 304h16H0zm128 112c61.856 0 112-50.144 112-112s-50.144-112-112-112v-16c70.692 0 128 57.308 128 128 0 70.692-57.308 128-128 128v-16zM32 304h16-16zm96 80c44.183 0 80-35.817 80-80s-35.817-80-80-80v-16c53.02 0 96 42.98 96 96s-42.98 96-96 96v-16zm-64-80h16-16zm64 48c26.51 0 48-21.49 48-48s-21.49-48-48-48v-16c35.346 0 64 28.654 64 64 0 35.346-28.654 64-64 64v-16z"/>
        <path d="M128 0v16C66.144 16 16 66.144 16 128s50.144 112 112 112 112-50.144 112-112h16c0 70.692-57.308 128-128 128C57.308 256 0 198.692 0 128 0 57.308 57.308 0 128 0zm0 32v16c-44.183 0-80 35.817-80 80s35.817 80 80 80 80-35.817 80-80h16c0 53.02-42.98 96-96 96s-96-42.98-96-96 42.98-96 96-96zm0 32v16c-26.51 0-48 21.49-48 48s21.49 48 48 48 48-21.49 48-48h16c0 35.346-28.654 64-64 64-35.346 0-64-28.654-64-64 0-35.346 28.654-64 64-64z"/>
        <path d="M0 128h16H0zm128 112c61.856 0 112-50.144 112-112S189.856 16 128 16V0c70.692 0 128 57.308 128 128 0 70.692-57.308 128-128 128v-16zM32 128h16-16zm96 80c44.183 0 80-35.817 80-80s-35.817-80-80-80V32c53.02 0 96 42.98 96 96s-42.98 96-96 96v-16zm-64-80h16-16zm64 48c26.51 0 48-21.49 48-48s-21.49-48-48-48V64c35.346 0 64 28.654 64 64 0 35.346-28.654 64-64 64v-16zM128 352v16c-61.856 0-112 50.144-112 112s50.144 112 112 112 112-50.144 112-112h16c0 70.692-57.308 128-128 128C57.308 608 0 550.692 0 480c0-70.692 57.308-128 128-128zm0 32v16c-44.183 0-80 35.817-80 80s35.817 80 80 80 80-35.817 80-80h16c0 53.02-42.98 96-96 96s-96-42.98-96-96 42.98-96 96-96zm0 32v16c-26.51 0-48 21.49-48 48s21.49 48 48 48 48-21.49 48-48h16c0 35.346-28.654 64-64 64-35.346 0-64-28.654-64-64 0-35.346 28.654-64 64-64z"/>
        <path d="M0 480h16H0zm128 112c61.856 0 112-50.144 112-112s-50.144-112-112-112v-16c70.692 0 128 57.308 128 128 0 70.692-57.308 128-128 128v-16zM32 480h16-16zm96 80c44.183 0 80-35.817 80-80s-35.817-80-80-80v-16c53.02 0 96 42.98 96 96s-42.98 96-96 96v-16zm-64-80h16-16zm64 48c26.51 0 48-21.49 48-48s-21.49-48-48-48v-16c35.346 0 64 28.654 64 64 0 35.346-28.654 64-64 64v-16z"/>
    </g>
</svg>
