<svg xmlns="http://www.w3.org/2000/svg" width="183" height="960" viewBox="0 0 183 960">
    <g fill="#F3F3F3" fill-rule="evenodd">
        <path d="M7 304H-9c0-61.856-50.144-112-112-112s-112 50.144-112 112 50.144 112 112 112v16c-70.692 0-128-57.308-128-128 0-70.692 57.308-128 128-128 70.692 0 128 57.308 128 128zm-32 0h-16c0-44.183-35.817-80-80-80s-80 35.817-80 80 35.817 80 80 80v16c-53.02 0-96-42.98-96-96s42.98-96 96-96 96 42.98 96 96zm-32 0h-16c0-26.51-21.49-48-48-48s-48 21.49-48 48 21.49 48 48 48v16c-35.346 0-64-28.654-64-64 0-35.346 28.654-64 64-64 35.346 0 64 28.654 64 64z"/>
        <path d="M-249 480h16-16zm128 112c61.856 0 112-50.144 112-112s-50.144-112-112-112v-16c70.692 0 128 57.308 128 128 0 70.692-57.308 128-128 128v-16zm-96-112h16-16zm96 80c44.183 0 80-35.817 80-80s-35.817-80-80-80v-16c53.02 0 96 42.98 96 96s-42.98 96-96 96v-16zm-64-80h16-16zm64 48c26.51 0 48-21.49 48-48s-21.49-48-48-48v-16c35.346 0 64 28.654 64 64 0 35.346-28.654 64-64 64v-16z"/>
        <path d="M7 480H-9 7zm-128-112c-61.856 0-112 50.144-112 112s50.144 112 112 112v16c-70.692 0-128-57.308-128-128 0-70.692 57.308-128 128-128v16zm96 112h-16 16zm-96-80c-44.183 0-80 35.817-80 80s35.817 80 80 80v16c-53.02 0-96-42.98-96-96s42.98-96 96-96v16zm64 80h-16 16zm-64-48c-26.51 0-48 21.49-48 48s21.49 48 48 48v16c-35.346 0-64-28.654-64-64 0-35.346 28.654-64 64-64v16z"/>
        <path d="M7 656H-9c0 61.856-50.144 112-112 112s-112-50.144-112-112 50.144-112 112-112v-16c-70.692 0-128 57.308-128 128 0 70.692 57.308 128 128 128 70.692 0 128-57.308 128-128zm-32 0h-16c0 44.183-35.817 80-80 80s-80-35.817-80-80 35.817-80 80-80v-16c-53.02 0-96 42.98-96 96s42.98 96 96 96 96-42.98 96-96zm-32 0h-16c0 26.51-21.49 48-48 48s-48-21.49-48-48 21.49-48 48-48v-16c-35.346 0-64 28.654-64 64 0 35.346 28.654 64 64 64 35.346 0 64-28.654 64-64z"/>
        <path d="M-121 784v-16 16zM-9 656c0-61.856-50.144-112-112-112s-112 50.144-112 112h-16c0-70.692 57.308-128 128-128 70.692 0 128 57.308 128 128H-9zm-112 96v-16 16zm80-96c0-44.183-35.817-80-80-80s-80 35.817-80 80h-16c0-53.02 42.98-96 96-96s96 42.98 96 96h-16zm-80 64v-16 16zm48-64c0-26.51-21.49-48-48-48s-48 21.49-48 48h-16c0-35.346 28.654-64 64-64 35.346 0 64 28.654 64 64h-16zM-121 176v16-16zm-112 128c0 61.856 50.144 112 112 112S-9 365.856-9 304H7c0 70.692-57.308 128-128 128-70.692 0-128-57.308-128-128h16zm112-96v16-16zm-80 96c0 44.183 35.817 80 80 80s80-35.817 80-80h16c0 53.02-42.98 96-96 96s-96-42.98-96-96h16zm80-64v16-16zm-48 64c0 26.51 21.49 48 48 48s48-21.49 48-48h16c0 35.346-28.654 64-64 64-35.346 0-64-28.654-64-64h16z"/>
        <path d="M183 304h-16c0-61.856-50.144-112-112-112S-57 242.144-57 304-6.856 416 55 416v16c-70.692 0-128-57.308-128-128 0-70.692 57.308-128 128-128 70.692 0 128 57.308 128 128zm-32 0h-16c0-44.183-35.817-80-80-80s-80 35.817-80 80 35.817 80 80 80v16c-53.02 0-96-42.98-96-96s42.98-96 96-96 96 42.98 96 96zm-32 0h-16c0-26.51-21.49-48-48-48S7 277.49 7 304s21.49 48 48 48v16c-35.346 0-64-28.654-64-64 0-35.346 28.654-64 64-64 35.346 0 64 28.654 64 64z"/>
        <path d="M-73 480h16-16zM55 592c61.856 0 112-50.144 112-112S116.856 368 55 368v-16c70.692 0 128 57.308 128 128 0 70.692-57.308 128-128 128v-16zm-96-112h16-16zm96 80c44.183 0 80-35.817 80-80s-35.817-80-80-80v-16c53.02 0 96 42.98 96 96s-42.98 96-96 96v-16zm-64-80H7-9zm64 48c26.51 0 48-21.49 48-48s-21.49-48-48-48v-16c35.346 0 64 28.654 64 64 0 35.346-28.654 64-64 64v-16z"/>
        <path d="M183 480h-16 16zM55 368c-61.856 0-112 50.144-112 112S-6.856 592 55 592v16c-70.692 0-128-57.308-128-128 0-70.692 57.308-128 128-128v16zm96 112h-16 16zm-96-80c-44.183 0-80 35.817-80 80s35.817 80 80 80v16c-53.02 0-96-42.98-96-96s42.98-96 96-96v16zm64 80h-16 16zm-64-48c-26.51 0-48 21.49-48 48s21.49 48 48 48v16c-35.346 0-64-28.654-64-64 0-35.346 28.654-64 64-64v16z"/>
        <path d="M183 656h-16c0 61.856-50.144 112-112 112S-57 717.856-57 656-6.856 544 55 544v-16c-70.692 0-128 57.308-128 128 0 70.692 57.308 128 128 128 70.692 0 128-57.308 128-128zm-32 0h-16c0 44.183-35.817 80-80 80s-80-35.817-80-80 35.817-80 80-80v-16c-53.02 0-96 42.98-96 96s42.98 96 96 96 96-42.98 96-96zm-32 0h-16c0 26.51-21.49 48-48 48S7 682.51 7 656s21.49-48 48-48v-16c-35.346 0-64 28.654-64 64 0 35.346 28.654 64 64 64 35.346 0 64-28.654 64-64z"/>
        <path d="M55 784v-16 16zm112-128c0-61.856-50.144-112-112-112S-57 594.144-57 656h-16c0-70.692 57.308-128 128-128 70.692 0 128 57.308 128 128h-16zM55 752v-16 16zm80-96c0-44.183-35.817-80-80-80s-80 35.817-80 80h-16c0-53.02 42.98-96 96-96s96 42.98 96 96h-16zm-80 64v-16 16zm48-64c0-26.51-21.49-48-48-48S7 629.49 7 656H-9c0-35.346 28.654-64 64-64 35.346 0 64 28.654 64 64h-16zM55 960v-16 16zm112-128c0-61.856-50.144-112-112-112S-57 770.144-57 832h-16c0-70.692 57.308-128 128-128 70.692 0 128 57.308 128 128h-16zM55 928v-16 16zm80-96c0-44.183-35.817-80-80-80s-80 35.817-80 80h-16c0-53.02 42.98-96 96-96s96 42.98 96 96h-16zm-80 64v-16 16zm48-64c0-26.51-21.49-48-48-48S7 805.49 7 832H-9c0-35.346 28.654-64 64-64 35.346 0 64 28.654 64 64h-16zM55 176v16-16zM-57 304c0 61.856 50.144 112 112 112s112-50.144 112-112h16c0 70.692-57.308 128-128 128-70.692 0-128-57.308-128-128h16zm112-96v16-16zm-80 96c0 44.183 35.817 80 80 80s80-35.817 80-80h16c0 53.02-42.98 96-96 96s-96-42.98-96-96h16zm80-64v16-16zM7 304c0 26.51 21.49 48 48 48s48-21.49 48-48h16c0 35.346-28.654 64-64 64-35.346 0-64-28.654-64-64H7z"/>
        <path d="M7 832H-9c0 61.856-50.144 112-112 112s-112-50.144-112-112 50.144-112 112-112v-16c-70.692 0-128 57.308-128 128 0 70.692 57.308 128 128 128 70.692 0 128-57.308 128-128zm-32 0h-16c0 44.183-35.817 80-80 80s-80-35.817-80-80 35.817-80 80-80v-16c-53.02 0-96 42.98-96 96s42.98 96 96 96 96-42.98 96-96zm-32 0h-16c0 26.51-21.49 48-48 48s-48-21.49-48-48 21.49-48 48-48v-16c-35.346 0-64 28.654-64 64 0 35.346 28.654 64 64 64 35.346 0 64-28.654 64-64z"/>
        <path d="M-121 960v-16c-61.856 0-112-50.144-112-112s50.144-112 112-112S-9 770.144-9 832H7c0-70.692-57.308-128-128-128-70.692 0-128 57.308-128 128 0 70.692 57.308 128 128 128zm0-32v-16c-44.183 0-80-35.817-80-80s35.817-80 80-80 80 35.817 80 80h16c0-53.02-42.98-96-96-96s-96 42.98-96 96 42.98 96 96 96zm0-32v-16c-26.51 0-48-21.49-48-48s21.49-48 48-48 48 21.49 48 48h16c0-35.346-28.654-64-64-64-35.346 0-64 28.654-64 64 0 35.346 28.654 64 64 64z"/>
        <path d="M183 832h-16c0 61.856-50.144 112-112 112S-57 893.856-57 832-6.856 720 55 720v-16c-70.692 0-128 57.308-128 128 0 70.692 57.308 128 128 128 70.692 0 128-57.308 128-128zm-32 0h-16c0 44.183-35.817 80-80 80s-80-35.817-80-80 35.817-80 80-80v-16c-53.02 0-96 42.98-96 96s42.98 96 96 96 96-42.98 96-96zm-32 0h-16c0 26.51-21.49 48-48 48S7 858.51 7 832s21.49-48 48-48v-16c-35.346 0-64 28.654-64 64 0 35.346 28.654 64 64 64 35.346 0 64-28.654 64-64zM7 128H-9C-9 66.144-59.144 16-121 16s-112 50.144-112 112 50.144 112 112 112v16c-70.692 0-128-57.308-128-128 0-70.692 57.308-128 128-128C-50.308 0 7 57.308 7 128zm-32 0h-16c0-44.183-35.817-80-80-80s-80 35.817-80 80 35.817 80 80 80v16c-53.02 0-96-42.98-96-96s42.98-96 96-96 96 42.98 96 96zm-32 0h-16c0-26.51-21.49-48-48-48s-48 21.49-48 48 21.49 48 48 48v16c-35.346 0-64-28.654-64-64 0-35.346 28.654-64 64-64 35.346 0 64 28.654 64 64z"/>
        <path d="M-121 0v16V0zm-112 128c0 61.856 50.144 112 112 112S-9 189.856-9 128H7c0 70.692-57.308 128-128 128-70.692 0-128-57.308-128-128h16zm112-96v16-16zm-80 96c0 44.183 35.817 80 80 80s80-35.817 80-80h16c0 53.02-42.98 96-96 96s-96-42.98-96-96h16zm80-64v16-16zm-48 64c0 26.51 21.49 48 48 48s48-21.49 48-48h16c0 35.346-28.654 64-64 64-35.346 0-64-28.654-64-64h16z"/>
        <path d="M183 128h-16c0-61.856-50.144-112-112-112S-57 66.144-57 128-6.856 240 55 240v16c-70.692 0-128-57.308-128-128C-73 57.308-15.692 0 55 0c70.692 0 128 57.308 128 128zm-32 0h-16c0-44.183-35.817-80-80-80s-80 35.817-80 80 35.817 80 80 80v16c-53.02 0-96-42.98-96-96S1.98 32 55 32s96 42.98 96 96zm-32 0h-16c0-26.51-21.49-48-48-48S7 101.49 7 128s21.49 48 48 48v16c-35.346 0-64-28.654-64-64 0-35.346 28.654-64 64-64 35.346 0 64 28.654 64 64z"/>
        <path d="M55 0v16V0zM-57 128c0 61.856 50.144 112 112 112s112-50.144 112-112h16c0 70.692-57.308 128-128 128-70.692 0-128-57.308-128-128h16zM55 32v16-16zm-80 96c0 44.183 35.817 80 80 80s80-35.817 80-80h16c0 53.02-42.98 96-96 96s-96-42.98-96-96h16zm80-64v16-16zM7 128c0 26.51 21.49 48 48 48s48-21.49 48-48h16c0 35.346-28.654 64-64 64-35.346 0-64-28.654-64-64H7z"/>
    </g>
</svg>
