<svg xmlns="http://www.w3.org/2000/svg" width="204" height="64" viewBox="0 0 204 64">
    <g fill="none" fill-rule="evenodd">
        <path fill="#EA5256" d="M31.687 0l1.733 1.98-1.733 1.98c-15.313 0-27.726 12.414-27.726 27.727s12.413 27.726 27.726 27.726C47 59.413 59.413 47 59.413 31.687h3.961c0 17.5-14.186 31.687-31.687 31.687C14.187 63.374 0 49.188 0 31.687 0 14.187 14.187 0 31.687 0z"/>
        <path fill="#F79369" d="M31.687 7.922l1.733 1.98-1.733 1.98c-10.938 0-19.804 8.867-19.804 19.805 0 10.938 8.866 19.805 19.804 19.805 10.938 0 19.805-8.867 19.805-19.805h3.96c0 13.125-10.64 23.766-23.765 23.766S7.922 44.813 7.922 31.687c0-13.125 10.64-23.765 23.765-23.765z"/>
        <path fill="#F9D367" d="M31.687 15.844l1.733 1.98-1.733 1.98c-6.562 0-11.883 5.32-11.883 11.883 0 6.563 5.32 11.883 11.883 11.883 6.563 0 11.883-5.32 11.883-11.883h3.96c0 8.75-7.093 15.844-15.843 15.844s-15.843-7.094-15.843-15.844 7.093-15.843 15.843-15.843z"/>
        <g fill="#1E1E1E" fill-rule="nonzero">
            <path d="M99.104 19.26l-1.08 2.46c-.707-.24-1.25-.4-1.63-.48-.38-.08-.797-.12-1.25-.12-.547 0-1.07.173-1.57.52-.5.347-.907.833-1.22 1.46-.313.627-.47 1.34-.47 2.14 0 .813.16 1.527.48 2.14.32.613.743 1.083 1.27 1.41.527.327 1.077.49 1.65.49.893 0 1.753-.247 2.58-.74l1.38 2.72c-.52.307-1.15.55-1.89.73-.74.18-1.463.27-2.17.27-1.44 0-2.693-.297-3.76-.89a6.07 6.07 0 0 1-2.45-2.47c-.567-1.053-.85-2.267-.85-3.64 0-1.373.3-2.6.9-3.68a6.489 6.489 0 0 1 2.49-2.53c1.06-.607 2.257-.91 3.59-.91.693 0 1.403.1 2.13.3.727.2 1.35.473 1.87.82zm11.524 9.88l.34 2.86h-9.76V18.4h3.64v10.74h5.78zm8.324-11.02c1.44 0 2.69.307 3.75.92a6.249 6.249 0 0 1 2.44 2.52c.567 1.067.85 2.253.85 3.56 0 1.387-.297 2.623-.89 3.71a6.383 6.383 0 0 1-2.49 2.54c-1.067.607-2.287.91-3.66.91-1.413 0-2.65-.31-3.71-.93a6.385 6.385 0 0 1-2.45-2.53c-.573-1.067-.86-2.253-.86-3.56 0-1.373.3-2.603.9-3.69a6.451 6.451 0 0 1 2.5-2.54c1.067-.607 2.273-.91 3.62-.91zm-3.28 7.12c0 1.173.29 2.133.87 2.88.58.747 1.377 1.12 2.39 1.12.973 0 1.77-.357 2.39-1.07.62-.713.93-1.73.93-3.05 0-1.16-.297-2.11-.89-2.85-.593-.74-1.383-1.11-2.37-1.11-.613 0-1.17.17-1.67.51-.5.34-.9.82-1.2 1.44-.3.62-.45 1.33-.45 2.13zm22.664-5.98l-1.08 2.46c-.707-.24-1.25-.4-1.63-.48-.38-.08-.797-.12-1.25-.12-.547 0-1.07.173-1.57.52-.5.347-.907.833-1.22 1.46-.313.627-.47 1.34-.47 2.14 0 .813.16 1.527.48 2.14.32.613.743 1.083 1.27 1.41.527.327 1.077.49 1.65.49.893 0 1.753-.247 2.58-.74l1.38 2.72c-.52.307-1.15.55-1.89.73-.74.18-1.463.27-2.17.27-1.44 0-2.693-.297-3.76-.89a6.07 6.07 0 0 1-2.45-2.47c-.567-1.053-.85-2.267-.85-3.64 0-1.373.3-2.6.9-3.68a6.489 6.489 0 0 1 2.49-2.53c1.06-.607 2.257-.91 3.59-.91.693 0 1.403.1 2.13.3.727.2 1.35.473 1.87.82zM148.62 32l-3.48-5.08-1.06 1V32h-3.64V18.4h3.64v4.72l5.46-5.02 2.82 2.04-4.62 4.32 5.5 7.54h-4.62zm24.784-13.6l-3.9 13.6h-3.64l-2.24-8.54-2.1 8.54h-3.64l-4.08-13.44 3.58-.36 2.38 9.44 2.04-9.24h3.62l2.32 9.24 2.04-9.24h3.62zm5.604 13.6h-3.64V18.4h3.64V32zm2.424-.84l1.2-2.74c.36.213.857.41 1.49.59s1.19.27 1.67.27c.533 0 .96-.11 1.28-.33.32-.22.48-.463.48-.73 0-.173-.117-.343-.35-.51-.233-.167-.61-.403-1.13-.71l-.62-.36a34.163 34.163 0 0 1-2.12-1.33 5.65 5.65 0 0 1-1.36-1.37c-.4-.56-.6-1.193-.6-1.9 0-.747.21-1.417.63-2.01.42-.593 1.01-1.057 1.77-1.39.76-.333 1.647-.5 2.66-.5.693 0 1.403.1 2.13.3.727.2 1.35.473 1.87.82l-1.08 2.46c-.707-.24-1.25-.4-1.63-.48-.38-.08-.797-.12-1.25-.12-.4 0-.723.093-.97.28-.247.187-.37.413-.37.68 0 .2.103.377.31.53.207.153.55.357 1.03.61l.72.4c.84.48 1.54.923 2.1 1.33.56.407 1.037.887 1.43 1.44a3.15 3.15 0 0 1 .59 1.87c0 .773-.22 1.46-.66 2.06-.44.6-1.07 1.073-1.89 1.42-.82.347-1.777.52-2.87.52-.707 0-1.497-.107-2.37-.32-.873-.213-1.57-.473-2.09-.78zm22.004.84h-9.96V18.4h9.02l.34 2.86h-5.72v2.48h4.18l.34 2.86h-4.52v2.54h5.98l.34 2.86zM94.612 47.15c0 .943-.342 1.678-1.026 2.205-.683.528-1.611.791-2.783.791-1.27 0-2.246-.163-2.93-.49v-1.201c.44.185.918.332 1.436.439.518.107 1.03.161 1.538.161.83 0 1.455-.157 1.875-.472.42-.315.63-.753.63-1.315 0-.371-.075-.675-.223-.912-.15-.237-.398-.455-.748-.655-.349-.2-.88-.428-1.593-.681-.996-.357-1.707-.78-2.135-1.268-.427-.488-.64-1.125-.64-1.911 0-.825.31-1.482.93-1.97.62-.489 1.44-.733 2.46-.733 1.065 0 2.044.195 2.938.586l-.388 1.084c-.884-.371-1.744-.557-2.579-.557-.659 0-1.174.142-1.545.425-.371.283-.557.677-.557 1.18 0 .37.069.675.205.911.137.237.368.454.693.652.324.198.821.416 1.49.656 1.123.4 1.896.83 2.318 1.289.423.459.634 1.054.634 1.787zm9.058-1.171c0 1.309-.33 2.33-.989 3.065-.659.735-1.57 1.102-2.731 1.102-.718 0-1.355-.168-1.912-.505-.557-.337-.986-.82-1.29-1.45-.302-.63-.453-1.367-.453-2.212 0-1.309.327-2.328.981-3.058.655-.73 1.563-1.095 2.725-1.095 1.123 0 2.015.374 2.677 1.12.661.748.992 1.759.992 3.033zm-6.115 0c0 1.025.205 1.807.615 2.344.41.537 1.013.805 1.809.805s1.4-.267 1.813-.802c.412-.534.618-1.317.618-2.347 0-1.02-.206-1.796-.618-2.325-.413-.53-1.022-.795-1.828-.795-.796 0-1.396.261-1.802.784-.405.522-.607 1.3-.607 2.336zm11.988-3.062h-2.044V50h-1.216v-7.083h-1.435v-.549l1.435-.44v-.446c0-1.973.862-2.96 2.586-2.96.425 0 .923.086 1.494.257l-.315.974c-.469-.15-.869-.227-1.201-.227-.459 0-.798.153-1.018.458-.22.305-.33.795-.33 1.469v.52h2.044v.944zm4.18 6.226c.215 0 .423-.016.623-.048.2-.031.359-.064.476-.098v.93a2.223 2.223 0 0 1-.582.157 4.373 4.373 0 0 1-.692.062c-1.553 0-2.33-.817-2.33-2.453v-4.776h-1.15v-.585l1.15-.506.513-1.714h.703v1.86h2.33v.945h-2.33v4.725c0 .483.115.854.345 1.113.229.259.544.388.944.388zm9.381.857l-1.472-4.71c-.093-.288-.266-.942-.52-1.962h-.059a26.85 26.85 0 0 1-.512 1.977L119.025 50h-1.407l-2.19-8.027h1.275l1.183 4.607c.27 1.054.426 1.765.465 2.13h.058c.054-.277.14-.637.26-1.08.12-.441.224-.792.312-1.05l1.472-4.607h1.318l1.436 4.607c.273.84.459 1.545.556 2.116h.059c.02-.175.072-.446.157-.813.086-.366.595-2.336 1.528-5.91h1.26L124.546 50h-1.443zm10.172 0l-.242-1.143h-.058c-.4.503-.8.844-1.198 1.022-.398.178-.895.267-1.49.267-.796 0-1.42-.205-1.872-.615-.451-.41-.677-.993-.677-1.75 0-1.621 1.296-2.47 3.89-2.55l1.361-.043v-.498c0-.63-.135-1.095-.406-1.395-.271-.3-.704-.45-1.3-.45-.67 0-1.426.204-2.27.614l-.374-.93a5.713 5.713 0 0 1 1.3-.505 5.63 5.63 0 0 1 1.417-.183c.957 0 1.666.212 2.128.637.461.425.692 1.106.692 2.043V50h-.901zm-2.747-.857c.757 0 1.352-.207 1.784-.622.432-.416.648-.997.648-1.744v-.725l-1.216.052c-.967.034-1.664.184-2.09.45-.428.266-.642.68-.642 1.241 0 .44.133.774.4 1.004.266.23.638.344 1.116.344zm9.938-7.317c.356 0 .676.03.96.088l-.17 1.128a4.142 4.142 0 0 0-.878-.11c-.65 0-1.205.264-1.666.791-.462.527-.692 1.184-.692 1.97V50h-1.216v-8.027h1.003l.14 1.486h.058c.298-.522.657-.925 1.077-1.208.42-.283.881-.425 1.384-.425zm5.675 8.32c-1.187 0-2.123-.36-2.81-1.083-.685-.723-1.028-1.727-1.028-3.01 0-1.295.318-2.323.956-3.084.637-.762 1.492-1.143 2.567-1.143 1.006 0 1.801.331 2.387.993.586.661.88 1.534.88 2.618v.77h-5.53c.024.941.262 1.657.714 2.145.451.488 1.087.732 1.908.732.864 0 1.718-.18 2.563-.542v1.084c-.43.186-.836.32-1.22.4-.383.08-.845.12-1.387.12zm-.33-7.302c-.644 0-1.158.21-1.542.63-.383.42-.609 1.001-.677 1.743h4.197c0-.766-.171-1.353-.513-1.761-.342-.408-.83-.612-1.465-.612z"/>
        </g>
    </g>
</svg>
