<svg xmlns="http://www.w3.org/2000/svg" width="24" height="24" viewBox="0 0 50 50">
    <path d="M24.9996 20.0546L27.5408 17.5134L24.9996 14.9722C19.5051 14.9722 14.9722 19.4365 14.9722 24.9996C14.9722 30.4941 19.4365 35.0271 24.9996 35.0271C30.5628 35.0271 35.0271 30.4941 35.0271 24.9996H29.9447C29.9447 27.7469 27.7469 29.9447 24.9996 29.9447C22.2524 29.9447 20.0546 27.7469 20.0546 24.9996C20.0546 22.2524 22.2524 20.0546 24.9996 20.0546Z" fill="#FFF"></path>
    <path d="M25.0001 37.4314C18.1319 37.4314 12.5687 31.8682 12.5687 25.0001C12.5687 18.1319 18.1319 12.5687 25.0001 12.5687L27.5413 10.0275L25.0001 7.48633C15.3847 7.48633 7.48633 15.316 7.48633 25.0001C7.48633 34.6841 15.316 42.5138 25.0001 42.5138C34.6841 42.5138 42.5138 34.6841 42.5138 25.0001H37.4314C37.4314 31.8682 31.8682 37.4314 25.0001 37.4314Z" fill="#FFF"></path>
    <path d="M44.9176 25C44.9176 35.989 35.989 44.9176 25 44.9176C14.011 44.9176 5.08242 35.989 5.08242 25C5.08242 14.011 14.011 5.08242 25 5.08242L27.5412 2.54121L25 0C11.1951 0 0 11.1951 0 25C0 38.8049 11.1951 50 25 50C38.8049 50 50 38.8049 50 25H44.9176Z" fill="#FFF"></path>
</svg>