<svg xmlns="http://www.w3.org/2000/svg" width="64" height="64" viewBox="0 0 64 64">
    <g fill="none" fill-rule="evenodd">
        <path fill="#EA5256" d="M31.687 0l1.733 1.98-1.733 1.98c-15.313 0-27.726 12.414-27.726 27.727s12.413 27.726 27.726 27.726C47 59.413 59.413 47 59.413 31.687h3.961c0 17.5-14.186 31.687-31.687 31.687C14.187 63.374 0 49.188 0 31.687 0 14.187 14.187 0 31.687 0z"/>
        <path fill="#F79369" d="M31.687 7.922l1.733 1.98-1.733 1.98c-10.938 0-19.804 8.867-19.804 19.805 0 10.938 8.866 19.805 19.804 19.805 10.938 0 19.805-8.867 19.805-19.805h3.96c0 13.125-10.64 23.766-23.765 23.766S7.922 44.813 7.922 31.687c0-13.125 10.64-23.765 23.765-23.765z"/>
        <path fill="#F9D367" d="M31.687 15.844l1.733 1.98-1.733 1.98c-6.562 0-11.883 5.32-11.883 11.883 0 6.563 5.32 11.883 11.883 11.883 6.563 0 11.883-5.32 11.883-11.883h3.96c0 8.75-7.093 15.844-15.843 15.844s-15.843-7.094-15.843-15.844 7.093-15.843 15.843-15.843z"/>
    </g>
</svg>
