<svg xmlns="http://www.w3.org/2000/svg" width="427" height="536" viewBox="0 0 427 536">
    <defs>
        <filter id="a" width="105.9%" height="105.9%" x="-2.9%" y="-2.9%" filterUnits="objectBoundingBox">
            <feGaussianBlur in="SourceGraphic" stdDeviation="5"/>
        </filter>
    </defs>
    <g fill="#F79369" fill-rule="evenodd">
        <path fill-opacity=".5" d="M404.21 225.579c-22.323 0-40.42 18.097-40.42 40.421 0 22.324 18.097 40.421 40.42 40.421 59.531 0 107.79 48.259 107.79 107.79C512 473.74 463.741 522 404.21 522c-59.53 0-107.789-48.259-107.789-107.79 0-22.323-18.097-40.42-40.421-40.42-22.324 0-40.421 18.097-40.421 40.42 0 59.531-48.259 107.79-107.79 107.79C48.26 522 0 473.741 0 414.21c0-59.53 48.259-107.789 107.79-107.789 22.323 0 40.42-18.097 40.42-40.421 0-22.324-18.097-40.421-40.42-40.421C48.258 225.579 0 177.32 0 117.789 0 58.26 48.259 10 107.79 10c59.53 0 107.789 48.259 107.789 107.79 0 22.323 18.097 40.42 40.421 40.42 22.324 0 40.421-18.097 40.421-40.42C296.421 58.258 344.68 10 404.211 10 463.74 10 512 58.259 512 117.79c0 59.53-48.259 107.789-107.79 107.789zm0-13.474c52.09 0 94.316-42.226 94.316-94.316 0-52.089-42.226-94.315-94.315-94.315-52.09 0-94.316 42.226-94.316 94.315 0 29.766-24.13 53.895-53.895 53.895-29.765 0-53.895-24.13-53.895-53.895 0-52.089-42.226-94.315-94.316-94.315-52.089 0-94.315 42.226-94.315 94.315 0 52.09 42.226 94.316 94.315 94.316 29.766 0 53.895 24.13 53.895 53.895 0 29.765-24.13 53.895-53.895 53.895-52.089 0-94.315 42.226-94.315 94.316 0 52.089 42.226 94.315 94.315 94.315 52.09 0 94.316-42.226 94.316-94.315 0-29.766 24.13-53.895 53.895-53.895 29.765 0 53.895 24.13 53.895 53.895 0 52.089 42.226 94.315 94.316 94.315 52.089 0 94.315-42.226 94.315-94.315 0-52.09-42.226-94.316-94.315-94.316-29.766 0-53.895-24.13-53.895-53.895 0-29.765 24.13-53.895 53.895-53.895zm0-13.473c-37.206 0-67.368 30.161-67.368 67.368 0 37.207 30.162 67.368 67.369 67.368 44.647 0 80.842 36.195 80.842 80.843 0 44.647-36.195 80.842-80.842 80.842-44.648 0-80.843-36.195-80.843-80.842 0-37.207-30.161-67.369-67.368-67.369-37.207 0-67.368 30.162-67.368 67.369 0 44.647-36.195 80.842-80.843 80.842-44.647 0-80.842-36.195-80.842-80.842 0-44.648 36.195-80.843 80.842-80.843 37.207 0 67.369-30.161 67.369-67.368 0-37.207-30.162-67.368-67.369-67.368-44.647 0-80.842-36.195-80.842-80.843 0-44.647 36.195-80.842 80.842-80.842 44.648 0 80.843 36.195 80.843 80.842 0 37.207 30.161 67.369 67.368 67.369 37.207 0 67.368-30.162 67.368-67.369 0-44.647 36.195-80.842 80.843-80.842 44.647 0 80.842 36.195 80.842 80.842 0 44.648-36.195 80.843-80.842 80.843zm0-13.474c37.207 0 67.369-30.162 67.369-67.369 0-37.206-30.162-67.368-67.368-67.368-37.207 0-67.369 30.162-67.369 67.368 0 44.648-36.194 80.843-80.842 80.843-44.648 0-80.842-36.195-80.842-80.843 0-37.206-30.162-67.368-67.369-67.368-37.206 0-67.368 30.162-67.368 67.368 0 37.207 30.162 67.369 67.368 67.369 44.648 0 80.843 36.194 80.843 80.842 0 44.648-36.195 80.842-80.843 80.842-37.206 0-67.368 30.162-67.368 67.369 0 37.206 30.162 67.368 67.368 67.368 37.207 0 67.369-30.162 67.369-67.368 0-44.648 36.194-80.843 80.842-80.843 44.648 0 80.842 36.195 80.842 80.843 0 37.206 30.162 67.368 67.369 67.368 37.206 0 67.368-30.162 67.368-67.368 0-37.207-30.162-67.369-67.368-67.369-44.648 0-80.843-36.194-80.843-80.842 0-44.648 36.195-80.842 80.843-80.842zm0-13.474c-52.089 0-94.315 42.227-94.315 94.316 0 52.09 42.226 94.316 94.316 94.316 29.765 0 53.894 24.13 53.894 53.895 0 29.765-24.13 53.894-53.894 53.894-29.766 0-53.895-24.13-53.895-53.894 0-52.09-42.227-94.316-94.316-94.316-52.09 0-94.316 42.226-94.316 94.316 0 29.765-24.13 53.894-53.895 53.894-29.765 0-53.894-24.13-53.894-53.894 0-29.766 24.13-53.895 53.894-53.895 52.09 0 94.316-42.227 94.316-94.316 0-52.09-42.226-94.316-94.316-94.316-29.765 0-53.894-24.13-53.894-53.895 0-29.765 24.13-53.894 53.894-53.894 29.766 0 53.895 24.13 53.895 53.894 0 52.09 42.227 94.316 94.316 94.316 52.09 0 94.316-42.226 94.316-94.316 0-29.765 24.13-53.894 53.895-53.894 29.765 0 53.894 24.13 53.894 53.894 0 29.766-24.13 53.895-53.894 53.895zm0-13.473c22.324 0 40.422-18.098 40.422-40.422 0-22.323-18.098-40.42-40.421-40.42-22.324 0-40.422 18.097-40.422 40.42 0 20.607-5.782 39.864-15.813 56.235 16.371-10.03 35.628-15.813 56.235-15.813zm-91.975 51.554C295.863 219.796 276.607 225.58 256 225.58s-39.863-5.783-56.235-15.814c10.031 16.372 15.814 35.628 15.814 56.235s-5.783 39.863-15.814 56.235c16.372-10.031 35.628-15.814 56.235-15.814s39.863 5.783 56.235 15.814C302.204 305.863 296.42 286.607 296.42 266s5.783-39.863 15.814-56.235zm35.74 148.21c10.032 16.372 15.814 35.629 15.814 56.236 0 22.323 18.098 40.42 40.422 40.42 22.323 0 40.42-18.097 40.42-40.42 0-22.324-18.097-40.422-40.42-40.422-20.607 0-39.864-5.782-56.235-15.813zM148.212 117.79c0-22.323-18.098-40.42-40.422-40.42-22.323 0-40.42 18.097-40.42 40.42 0 22.324 18.097 40.422 40.42 40.422 20.607 0 39.864 5.782 56.235 15.813-10.03-16.371-15.813-35.628-15.813-56.235zm-40.422 256c-22.323 0-40.42 18.098-40.42 40.422 0 22.323 18.097 40.42 40.42 40.42 22.324 0 40.422-18.097 40.422-40.42 0-20.607 5.782-39.864 15.813-56.235-16.371 10.03-35.628 15.813-56.235 15.813z" filter="url(#a)" transform="translate(12 2)"/>
        <path d="M416.21 217.579c-22.323 0-40.42 18.097-40.42 40.421 0 22.324 18.097 40.421 40.42 40.421 59.531 0 107.79 48.259 107.79 107.79C524 465.74 475.741 514 416.21 514c-59.53 0-107.789-48.259-107.789-107.79 0-22.323-18.097-40.42-40.421-40.42-22.324 0-40.421 18.097-40.421 40.42 0 59.531-48.259 107.79-107.79 107.79C60.26 514 12 465.741 12 406.21c0-59.53 48.259-107.789 107.79-107.789 22.323 0 40.42-18.097 40.42-40.421 0-22.324-18.097-40.421-40.42-40.421C60.258 217.579 12 169.32 12 109.789 12 50.26 60.259 2 119.79 2c59.53 0 107.789 48.259 107.789 107.79 0 22.323 18.097 40.42 40.421 40.42 22.324 0 40.421-18.097 40.421-40.42C308.421 50.258 356.68 2 416.211 2 475.74 2 524 50.259 524 109.79c0 59.53-48.259 107.789-107.79 107.789zm0-13.474c52.09 0 94.316-42.226 94.316-94.316 0-52.089-42.226-94.315-94.315-94.315-52.09 0-94.316 42.226-94.316 94.315 0 29.766-24.13 53.895-53.895 53.895-29.765 0-53.895-24.13-53.895-53.895 0-52.089-42.226-94.315-94.316-94.315-52.089 0-94.315 42.226-94.315 94.315 0 52.09 42.226 94.316 94.315 94.316 29.766 0 53.895 24.13 53.895 53.895 0 29.765-24.13 53.895-53.895 53.895-52.089 0-94.315 42.226-94.315 94.316 0 52.089 42.226 94.315 94.315 94.315 52.09 0 94.316-42.226 94.316-94.315 0-29.766 24.13-53.895 53.895-53.895 29.765 0 53.895 24.13 53.895 53.895 0 52.089 42.226 94.315 94.316 94.315 52.089 0 94.315-42.226 94.315-94.315 0-52.09-42.226-94.316-94.315-94.316-29.766 0-53.895-24.13-53.895-53.895 0-29.765 24.13-53.895 53.895-53.895zm0-13.473c-37.206 0-67.368 30.161-67.368 67.368 0 37.207 30.162 67.368 67.369 67.368 44.647 0 80.842 36.195 80.842 80.843 0 44.647-36.195 80.842-80.842 80.842-44.648 0-80.843-36.195-80.843-80.842 0-37.207-30.161-67.369-67.368-67.369-37.207 0-67.368 30.162-67.368 67.369 0 44.647-36.195 80.842-80.843 80.842-44.647 0-80.842-36.195-80.842-80.842 0-44.648 36.195-80.843 80.842-80.843 37.207 0 67.369-30.161 67.369-67.368 0-37.207-30.162-67.368-67.369-67.368-44.647 0-80.842-36.195-80.842-80.843 0-44.647 36.195-80.842 80.842-80.842 44.648 0 80.843 36.195 80.843 80.842 0 37.207 30.161 67.369 67.368 67.369 37.207 0 67.368-30.162 67.368-67.369 0-44.647 36.195-80.842 80.843-80.842 44.647 0 80.842 36.195 80.842 80.842 0 44.648-36.195 80.843-80.842 80.843zm0-13.474c37.207 0 67.369-30.162 67.369-67.369 0-37.206-30.162-67.368-67.368-67.368-37.207 0-67.369 30.162-67.369 67.368 0 44.648-36.194 80.843-80.842 80.843-44.648 0-80.842-36.195-80.842-80.843 0-37.206-30.162-67.368-67.369-67.368-37.206 0-67.368 30.162-67.368 67.368 0 37.207 30.162 67.369 67.368 67.369 44.648 0 80.843 36.194 80.843 80.842 0 44.648-36.195 80.842-80.843 80.842-37.206 0-67.368 30.162-67.368 67.369 0 37.206 30.162 67.368 67.368 67.368 37.207 0 67.369-30.162 67.369-67.368 0-44.648 36.194-80.843 80.842-80.843 44.648 0 80.842 36.195 80.842 80.843 0 37.206 30.162 67.368 67.369 67.368 37.206 0 67.368-30.162 67.368-67.368 0-37.207-30.162-67.369-67.368-67.369-44.648 0-80.843-36.194-80.843-80.842 0-44.648 36.195-80.842 80.843-80.842zm0-13.474c-52.089 0-94.315 42.227-94.315 94.316 0 52.09 42.226 94.316 94.316 94.316 29.765 0 53.894 24.13 53.894 53.895 0 29.765-24.13 53.894-53.894 53.894-29.766 0-53.895-24.13-53.895-53.894 0-52.09-42.227-94.316-94.316-94.316-52.09 0-94.316 42.226-94.316 94.316 0 29.765-24.13 53.894-53.895 53.894-29.765 0-53.894-24.13-53.894-53.894 0-29.766 24.13-53.895 53.894-53.895 52.09 0 94.316-42.227 94.316-94.316 0-52.09-42.226-94.316-94.316-94.316-29.765 0-53.894-24.13-53.894-53.895 0-29.765 24.13-53.894 53.894-53.894 29.766 0 53.895 24.13 53.895 53.894 0 52.09 42.227 94.316 94.316 94.316 52.09 0 94.316-42.226 94.316-94.316 0-29.765 24.13-53.894 53.895-53.894 29.765 0 53.894 24.13 53.894 53.894 0 29.766-24.13 53.895-53.894 53.895zm0-13.473c22.324 0 40.422-18.098 40.422-40.422 0-22.323-18.098-40.42-40.421-40.42-22.324 0-40.422 18.097-40.422 40.42 0 20.607-5.782 39.864-15.813 56.235 16.371-10.03 35.628-15.813 56.235-15.813zm-91.975 51.554C307.863 211.796 288.607 217.58 268 217.58s-39.863-5.783-56.235-15.814c10.031 16.372 15.814 35.628 15.814 56.235s-5.783 39.863-15.814 56.235c16.372-10.031 35.628-15.814 56.235-15.814s39.863 5.783 56.235 15.814C314.204 297.863 308.42 278.607 308.42 258s5.783-39.863 15.814-56.235zm35.74 148.21c10.032 16.372 15.814 35.629 15.814 56.236 0 22.323 18.098 40.42 40.422 40.42 22.323 0 40.42-18.097 40.42-40.42 0-22.324-18.097-40.422-40.42-40.422-20.607 0-39.864-5.782-56.235-15.813zM160.212 109.79c0-22.323-18.098-40.42-40.422-40.42-22.323 0-40.42 18.097-40.42 40.42 0 22.324 18.097 40.422 40.42 40.422 20.607 0 39.864 5.782 56.235 15.813-10.03-16.371-15.813-35.628-15.813-56.235zm-40.422 256c-22.323 0-40.42 18.098-40.42 40.422 0 22.323 18.097 40.42 40.42 40.42 22.324 0 40.422-18.097 40.422-40.42 0-20.607 5.782-39.864 15.813-56.235-16.371 10.03-35.628 15.813-56.235 15.813z"/>
    </g>
</svg>
